PathFileType	4	(X/Y/Z)	 s01c0202.trc
DataRate	CameraRate	NumFrames	NumMarkers	Units	OrigDataRate	OrigDataStartFrame	OrigNumFrames
200	200	4	48	mm	200	751	2000
Frame#	Time	racr			lacr			c7			jug			rlel			rdr			llel			ldr			s2			lic			ric			lasi			rasi			rpsi			lpsi			rgt			lgt			rth1			rth2			rth3			rth4			rlfc			rsh1			rsh2			rsh3			rsh4			rlmal			rmmal			rcal			rtoe			rmt5			lth1			lth2			lth4			lth3			llfc			lsh1			lsh2			lsh3			lsh4			llmal			lmmal			lcal			ltoe			lmt5			SBIKE			LBIKE			RBIKE			
		X1	Y1	Z1	X2	Y2	Z2	X3	Y3	Z3	X4	Y4	Z4	X5	Y5	Z5	X6	Y6	Z6	X7	Y7	Z7	X8	Y8	Z8	X9	Y9	Z9	X10	Y10	Z10	X11	Y11	Z11	X12	Y12	Z12	X13	Y13	Z13	X14	Y14	Z14	X15	Y15	Z15	X16	Y16	Z16	X17	Y17	Z17	X18	Y18	Z18	X19	Y19	Z19	X20	Y20	Z20	X21	Y21	Z21	X22	Y22	Z22	X23	Y23	Z23	X24	Y24	Z24	X25	Y25	Z25	X26	Y26	Z26	X27	Y27	Z27	X28	Y28	Z28	X29	Y29	Z29	X30	Y30	Z30	X31	Y31	Z31	X32	Y32	Z32	X33	Y33	Z33	X34	Y34	Z34	X35	Y35	Z35	X36	Y36	Z36	X37	Y37	Z37	X38	Y38	Z38	X39	Y39	Z39	X40	Y40	Z40	X41	Y41	Z41	X42	Y42	Z42	X43	Y43	Z43	X44	Y44	Z44	X45	Y45	Z45	X46	Y46	Z46	X47	Y47	Z47	X48	Y48	Z48	
751	3.7550	478.238856	1260.749052	-51.615152	519.690937	1249.855395	-404.986738	466.206871	1367.363834	-232.698562	458.687382	1199.153900	-233.345685	455.208069	991.791327	50.392933	668.859656	887.506593	-37.100526	492.647562	1014.872376	-570.436105	667.327768	890.289084	-447.565042	-56.435958	1152.463447	-256.849429	113.216297	1169.955900	-428.693819	87.982763	1159.108591	-93.634281	117.976097	1120.667193	-402.774095	121.164434	1117.427605	-124.372440	-30.807142	1191.419799	-205.145826	-31.328665	1194.170208	-310.988146	45.087700	1038.751254	-72.967068	71.188217	1048.222073	-454.744491	120.724358	925.802322	-50.680716	171.713631	860.930310	-56.392509	222.768897	786.953722	-67.010276	217.163482	893.184022	-66.575730	270.409033	682.439107	-86.745272	245.060589	568.175366	-54.263437	242.484183	483.470679	-60.072198	231.464716	395.872458	-72.141664	292.355832	482.215176	-95.089751	207.207024	274.965870	-96.565939	248.923393	289.403007	-170.208396	167.626710	253.831866	-150.508574	430.364743	192.284031	-130.754461	321.407497	175.261126	-63.738298	173.683756	981.910528	-449.197458	263.027838	974.488698	-450.232167	269.250549	1027.217323	-437.725341	346.165156	956.620190	-433.209216	437.689504	883.892429	-405.106501	345.546377	826.230412	-437.855765	284.248054	765.780479	-429.810908	221.547283	708.180792	-417.445297	323.613423	730.159568	-398.934885	131.046576	625.836073	-404.855443	157.413960	610.168670	-321.700563	70.377989	626.122292	-359.637629	265.850561	426.667035	-372.467595	173.564014	483.628438	-436.007230	-223.983143	893.153116	-252.378824	-12.560324	84.673770	-456.102228	-21.579801	80.793013	-56.050334	
752	3.7600	480.431213	1261.444592	-54.083485	519.019373	1251.084196	-407.482824	466.992783	1368.467268	-234.737753	459.421772	1200.533131	-235.552566	456.969029	993.193075	49.578556	669.302565	887.752308	-37.358591	491.661701	1014.621529	-570.773100	666.811007	890.930631	-447.449113	-56.102026	1152.850708	-255.161164	112.598510	1172.613361	-427.997345	89.156357	1159.019283	-93.282014	118.292409	1122.411500	-401.876348	121.868282	1117.578884	-123.524569	-30.391302	1191.575035	-203.197303	-31.090574	1194.844047	-308.916344	44.992463	1038.116724	-72.063014	71.747931	1051.066248	-454.170513	118.598890	924.943249	-49.721153	168.432343	859.102801	-55.107828	218.311125	784.270746	-65.532419	214.540671	890.716681	-65.110425	264.505880	679.225228	-85.498614	238.528530	564.919949	-53.352499	235.838666	480.280906	-59.262813	224.827678	392.705792	-71.538158	285.841258	478.888690	-94.145391	200.780380	272.341225	-96.355384	241.772438	285.887200	-169.786205	161.436477	252.246618	-151.112867	422.428723	184.812549	-131.007817	313.128359	170.275897	-63.909405	174.572202	986.337171	-448.878211	264.171242	980.978765	-449.653803	269.320302	1033.740417	-437.231685	347.804021	964.693302	-432.513760	440.857142	893.447223	-404.925926	349.388130	835.184244	-437.321430	288.745605	773.965809	-429.409474	226.858634	715.505598	-417.166146	328.456109	738.385475	-398.737947	137.754938	631.043562	-404.588968	164.079429	615.510465	-321.382030	76.793736	630.234309	-359.503652	274.745413	433.960853	-372.756561	182.127169	489.471235	-435.776213	-224.023728	893.240961	-252.416648	-12.567846	84.730477	-456.094761	-21.594141	80.822053	-56.042168	
753	3.7650	482.554704	1262.433858	-56.655360	518.327580	1252.070122	-409.893475	467.813125	1369.450152	-236.819700	460.098057	1201.984983	-237.740774	458.458118	994.681692	48.349211	669.735854	888.018598	-37.575238	489.886922	1013.998226	-571.100011	666.339476	891.286160	-447.251642	-55.783646	1153.367878	-253.532152	112.094485	1175.140209	-427.386948	90.505882	1159.133274	-92.946083	118.589298	1124.101981	-401.148419	122.503608	1117.925234	-122.759111	-29.949589	1191.900122	-201.348468	-30.841069	1195.643392	-306.911662	44.897973	1037.712383	-71.185368	72.397984	1053.884035	-453.559785	116.645361	924.441488	-48.714157	165.490043	857.742314	-53.766645	214.211752	782.163996	-64.209050	212.141783	888.544819	-63.549216	258.994849	676.625115	-84.230835	232.244282	562.381146	-52.467667	229.375982	477.671117	-58.548653	218.315748	390.225966	-70.947452	279.420074	476.156148	-92.932105	194.410505	270.111750	-96.668749	234.940850	283.132779	-169.247401	154.831220	251.881278	-150.604170	414.256692	177.656473	-131.205626	304.711990	165.753434	-64.071091	175.333689	990.666410	-448.577984	265.210746	987.116264	-449.088930	269.285607	1039.890081	-436.515860	349.228704	972.316162	-431.720957	443.692074	902.626456	-404.690816	352.868657	843.725821	-436.648096	293.139922	781.518643	-429.270384	232.057001	722.291429	-416.831147	333.369138	746.307051	-398.925745	144.234950	635.547674	-404.253057	170.677682	620.191691	-321.095540	83.199705	633.495343	-359.346258	284.351608	440.741087	-372.609294	190.825150	494.699080	-435.561043	-224.031756	893.274116	-252.332577	-12.587421	84.743090	-456.088627	-21.578699	80.815779	-56.022237	
754	3.7700	483.948177	1263.140492	-60.365650	517.642060	1252.829962	-412.273527	468.707828	1370.253053	-238.940228	460.772865	1203.129943	-239.816267	459.756888	996.295297	47.005503	670.066547	888.264300	-37.743181	488.619046	1013.317901	-571.412244	665.800468	891.624885	-446.965464	-55.481073	1154.110918	-251.994016	111.510814	1177.614520	-426.540096	91.998974	1159.517763	-92.671642	118.878908	1125.757831	-400.308291	123.161295	1118.357569	-122.099632	-29.513930	1192.416592	-199.562981	-30.613835	1196.630051	-304.993903	44.725609	1037.610270	-70.357277	72.841096	1056.841244	-452.975512	114.901026	924.142462	-47.832808	162.766459	856.779716	-52.498118	210.476310	780.478421	-62.671015	209.958522	886.962067	-61.970235	254.022670	674.446539	-82.971416	226.301097	560.411048	-51.604779	223.174562	475.811364	-57.808737	211.813147	388.377476	-70.404572	273.500821	474.102586	-91.775630	188.264245	269.749768	-94.132261	228.495478	281.159503	-168.588354	148.271139	252.799693	-149.692032	405.766257	170.847426	-131.455501	295.954861	161.870704	-64.217269	175.956576	994.856091	-448.286109	265.936487	992.877895	-448.758310	269.167285	1045.805622	-435.916202	350.419648	979.340554	-430.828120	446.082382	911.269782	-404.598495	355.824819	851.746376	-435.809618	297.121152	788.964284	-428.480970	237.051506	728.552944	-416.404321	338.098175	753.576376	-399.311577	150.644654	639.302746	-403.868579	177.183488	624.174122	-320.849288	89.519785	635.961131	-359.075080	294.271401	447.241204	-372.296998	199.741875	499.448708	-435.274093	-224.065097	893.313122	-252.264707	-12.597887	84.783131	-456.080033	-21.588464	80.833602	-56.019466	
